<svg xmlns="http://www.w3.org/2000/svg" xmlns:svg="http://www.w3.org/2000/svg" id="svg4370" width="18" height="18" fill="#000" version="1.1" viewBox="0 0 24 24"><metadata id="metadata4376"/><path id="path4366" fill="none" d="M0 0h24v24H0V0z"/><path id="path4368" d="M 4.2119441,12.662432 H 20.27091 v 7.337333 H 4.2709098 M 22.298276,12.662432 H 2.2709098 c 0,0 -0.081352,2.928702 -3e-7,7.337337 0,1.1 0.9,2 2,2 H 20.27091 c 1.1,0 1.995897,-0.900008 2,-2 z"/><path id="path4389" d="M 22.298276,10.536957 H 20.29891 l -2,3.999999 h -2.666667 l 2,-3.999999 h -2.666666 l -2,3.999999 H 10.29891 l 2,-3.999999 H 9.6322429 L 7.6322431,14.536956 H 4.9655765 l 2,-3.999999 H 2.2982759 v 4.000002 H 22.298276 Z"/><path style="stroke-width:1" id="path4389-8" d="m 20.968582,2.3260074 -3.90625,0.8609398 2.814065,3.4757793 -2.604167,0.57396 L 14.458165,3.760907 11.854,4.3348665 14.668063,7.8106463 12.063899,8.3846056 9.2498343,4.9088261 6.6456676,5.4827859 9.4597318,8.9585655 6.8555663,9.532525 4.041501,6.0567457 1.4373359,6.6307052 2.2982759,10.536957 21.829522,6.2322587 Z"/></svg>