<svg xmlns="http://www.w3.org/2000/svg" xmlns:svg="http://www.w3.org/2000/svg" xmlns:xlink="http://www.w3.org/1999/xlink" id="svg3252" width="137.373" height="112.683" enable-background="new 0 0 137.373 112.683" overflow="visible" version="1.1" viewBox="0 0 137.373 112.683" xml:space="preserve"><metadata id="metadata3254"/><switch id="switch3256"><g id="g3260"><g id="Layer_1"><path id="path3263" d="M70.135,69.445L45.543,0H24.592L0,69.445h17.453l4.253-12.287h26.723l4.254,12.287H70.135z M43.632,43.297H26.503l8.565-24.742L43.632,43.297z"/><path id="path3265" fill="#FA1B31" d="M76.662,69.445h15.742V53.702H76.662V69.445z"/><path id="path3267" fill="#FA1B31" d="M92.908,24.06V0H76.19v24.06l3.411,24.06h9.238L92.908,24.06z"/><path id="path3269" d="M7.038,93.687L7.633,95.9h2.808L6.939,84.882H3.85L0,95.9h2.693l0.694-2.214H7.038z M6.493,91.654 H3.998l1.338-4.312L6.493,91.654z M13.646,90.433c0.099-0.646,0.561-0.959,1.404-0.959c0.776,0,1.239,0.28,1.239,0.744 c0,0.313-0.182,0.462-0.71,0.545l-1.272,0.215c-2.231,0.363-3.172,1.14-3.172,2.626c0,1.504,1.173,2.511,2.924,2.511 c0.958,0,1.503-0.198,2.296-0.842c0.083,0.297,0.083,0.347,0.182,0.628h2.395c-0.264-0.397-0.297-0.512-0.297-1.371v-3.668 c0-1.189-0.215-1.817-0.793-2.329c-0.628-0.562-1.553-0.843-2.759-0.843c-2.247,0-3.387,0.892-3.535,2.743H13.646z M16.355,93.323c-0.38,0.677-0.942,1.007-1.718,1.007c-0.727,0-1.189-0.313-1.189-0.842c0-0.479,0.363-0.76,1.206-0.958 l0.842-0.182c0.397-0.083,0.611-0.149,0.859-0.248V93.323z M22.98,84.882h-2.346V95.9h2.346V84.882z M29.34,88.021h-1.437 v-2.528h-2.346v2.528h-1.124v1.651h1.124v3.635c0,1.238,0.099,1.669,0.462,2.064c0.347,0.38,0.859,0.529,1.884,0.529h1.437 v-1.768h-0.843c-0.545,0-0.594-0.1-0.594-1.355v-3.105h1.437V88.021z M34.61,87.706c-2.478,0-4.23,1.751-4.23,4.196 c0,2.478,1.752,4.212,4.23,4.212c2.461,0,4.245-1.734,4.245-4.146C38.855,89.44,37.137,87.706,34.61,87.706 M34.61,89.573 c1.206,0,1.883,0.842,1.883,2.378c0,1.438-0.694,2.297-1.883,2.297c-1.19,0-1.867-0.858-1.867-2.346 C32.743,90.433,33.42,89.573,34.61,89.573 M50.816,84.882v7.284c0,0.744-0.116,1.074-0.446,1.389 c-0.364,0.313-0.893,0.495-1.504,0.495c-0.594,0-1.123-0.182-1.487-0.495c-0.33-0.314-0.446-0.645-0.446-1.389v-7.284h-2.478 v7.449c0,1.389,0.364,2.265,1.19,2.875c0.842,0.611,1.966,0.941,3.221,0.941c1.272,0,2.396-0.33,3.238-0.941 c0.826-0.61,1.19-1.486,1.19-2.875v-7.449H50.816z M55.54,87.921V95.9h2.346v-4.478c0-0.693,0.083-1.023,0.347-1.321 c0.248-0.281,0.611-0.43,1.008-0.43c0.413,0,0.76,0.165,0.958,0.463c0.198,0.298,0.248,0.61,0.248,1.421V95.9h2.345v-5.171 c0-1.883-1.057-3.04-2.791-3.04c-0.826,0-1.306,0.215-2.181,1.008v-0.776H55.54z M67.368,87.921h-2.346V95.9h2.346V87.921z M67.368,84.882h-2.346v1.933h2.346V84.882z M73.942,95.9l2.71-7.979h-2.511l-0.81,3.057c-0.116,0.479-0.314,1.387-0.496,2.296 c-0.265-0.958-0.462-1.735-0.627-2.296l-0.893-3.057h-2.462l2.858,7.979H73.942z M85.557,92.597c0-1.059-0.116-1.769-0.364-2.43 c-0.577-1.586-1.865-2.461-3.584-2.461c-2.396,0-4.081,1.734-4.081,4.212c0,2.512,1.637,4.196,4.098,4.196 c1.899,0,3.387-0.991,3.833-2.544h-2.379c-0.331,0.496-0.761,0.711-1.389,0.711c-1.008,0-1.651-0.595-1.801-1.685H85.557z M79.907,90.944c0.182-0.925,0.775-1.454,1.685-1.454s1.454,0.529,1.553,1.454H79.907z M87.242,87.921V95.9h2.346v-2.247 c0-1.553,0.082-2.296,0.313-2.825c0.266-0.595,0.927-0.958,1.735-0.958c0.165,0,0.314,0.017,0.595,0.049v-2.213 c-1.702-0.017-2.296,0.348-2.759,1.636l0.066-1.421H87.242z M100.408,90.316c-0.198-1.685-1.454-2.61-3.502-2.61 c-2.115,0-3.403,0.975-3.403,2.577c0,1.272,0.677,1.916,2.428,2.296l1.454,0.331c0.628,0.148,0.892,0.363,0.892,0.727 c0,0.463-0.495,0.776-1.223,0.776c-0.941,0-1.437-0.363-1.569-1.106h-2.196c0.132,1.768,1.503,2.808,3.717,2.808 s3.585-1.057,3.585-2.742c0-0.644-0.215-1.238-0.595-1.602c-0.348-0.364-0.844-0.579-1.817-0.777l-1.47-0.313 c-0.744-0.165-0.976-0.314-0.976-0.611c0-0.396,0.446-0.661,1.123-0.661c0.777,0,1.256,0.314,1.355,0.909H100.408z M104.438,87.921h-2.346V95.9h2.346V87.921z M104.438,84.882h-2.346v1.933h2.346V84.882z M110.964,88.021h-1.438v-2.528h-2.346 v2.528h-1.123v1.651h1.123v3.635c0,1.238,0.1,1.669,0.463,2.064c0.348,0.38,0.859,0.529,1.883,0.529h1.438v-1.768h-0.842 c-0.546,0-0.596-0.1-0.596-1.355v-3.105h1.438V88.021z M117.721,87.921l-1.041,3.602c-0.182,0.71-0.313,1.255-0.413,1.784 l-0.099-0.314c-0.183-0.661-0.183-0.677-0.413-1.421l-1.173-3.65h-2.512l2.628,6.707c0.279,0.693,0.297,0.743,0.297,1.024 c0,0.694-0.38,1.008-1.206,1.008h-0.694v1.768h1.371c1.784,0,2.164-0.33,2.908-2.461l2.774-8.046H117.721z"/><path id="path3271" fill="#6A5E54" d="M9.56,104.868c-0.099-0.941-0.264-1.503-0.595-2.032 c-0.677-1.106-1.966-1.668-3.799-1.668c-2.776,0-4.428,1.272-4.428,3.403c0,0.892,0.314,1.686,0.876,2.164 c0.495,0.429,1.222,0.743,2.395,1.024l1.999,0.495c0.777,0.198,1.19,0.578,1.19,1.123c0,0.761-0.777,1.239-2.049,1.239 c-1.503,0-2.214-0.562-2.263-1.816H0.408c0.016,2.461,1.735,3.882,4.708,3.882c2.858,0,4.609-1.404,4.609-3.685 c0-0.876-0.281-1.586-0.842-2.098c-0.529-0.496-1.206-0.793-2.429-1.09l-2.23-0.513c-0.677-0.165-1.008-0.479-1.008-0.941 c0-0.694,0.711-1.123,1.884-1.123c1.239,0,1.982,0.545,1.982,1.453v0.182H9.56z M18.761,107.329 c-0.148-1.898-1.569-3.089-3.65-3.089c-2.528,0-4.048,1.604-4.048,4.229c0,2.561,1.536,4.18,3.965,4.18 c2.114,0,3.502-1.14,3.833-3.155l-2.28-0.116c-0.182,0.942-0.644,1.371-1.487,1.371c-1.09,0-1.669-0.826-1.669-2.346 c0-1.453,0.579-2.263,1.652-2.263c0.777,0,1.322,0.445,1.454,1.188H18.761z M22.908,101.415h-2.346v11.02h2.346v-4.478 c0-0.842,0.049-1.073,0.314-1.338c0.247-0.264,0.627-0.413,1.024-0.413c0.396,0,0.727,0.149,0.925,0.413 c0.215,0.281,0.264,0.578,0.264,1.338v4.478h2.346v-4.906c0-1.206-0.198-1.884-0.71-2.445c-0.512-0.545-1.256-0.858-2.049-0.858 c-0.826,0-1.454,0.28-2.114,0.908V101.415z M33.844,104.24c-2.478,0-4.229,1.751-4.229,4.196c0,2.478,1.751,4.213,4.229,4.213 c2.461,0,4.246-1.735,4.246-4.147C38.09,105.976,36.371,104.24,33.844,104.24 M33.844,106.107c1.206,0,1.883,0.843,1.883,2.379 c0,1.437-0.694,2.296-1.883,2.296c-1.19,0-1.867-0.859-1.867-2.346C31.977,106.967,32.654,106.107,33.844,106.107 M43.756,104.24c-2.478,0-4.229,1.751-4.229,4.196c0,2.478,1.751,4.213,4.229,4.213c2.461,0,4.245-1.735,4.245-4.147 C48.001,105.976,46.283,104.24,43.756,104.24 M43.756,106.107c1.206,0,1.883,0.843,1.883,2.379c0,1.437-0.694,2.296-1.883,2.296 c-1.19,0-1.867-0.859-1.867-2.346C41.889,106.967,42.566,106.107,43.756,106.107 M52.181,101.415h-2.346v11.02h2.346V101.415z M61.795,104.24c-2.478,0-4.229,1.751-4.229,4.196c0,2.478,1.751,4.213,4.229,4.213c2.462,0,4.246-1.735,4.246-4.147 C66.041,105.976,64.323,104.24,61.795,104.24 M61.795,106.107c1.206,0,1.884,0.843,1.884,2.379c0,1.437-0.694,2.296-1.884,2.296 c-1.189,0-1.866-0.859-1.866-2.346C59.929,106.967,60.606,106.107,61.795,106.107 M71.955,104.555h-1.521v-0.563 c0-0.462,0.281-0.71,0.826-0.71h0.694v-1.867h-1.288c-1.735,0-2.578,0.844-2.578,2.562v0.578h-1.106v1.651h1.106v6.229h2.346 v-6.229h1.521V104.555z M86.344,104.868c-0.099-0.941-0.265-1.503-0.595-2.032c-0.678-1.106-1.966-1.668-3.8-1.668 c-2.775,0-4.428,1.272-4.428,3.403c0,0.892,0.314,1.686,0.876,2.164c0.495,0.429,1.223,0.743,2.396,1.024l1.999,0.495 c0.775,0.198,1.188,0.578,1.188,1.123c0,0.761-0.775,1.239-2.048,1.239c-1.503,0-2.214-0.562-2.263-1.816h-2.479 c0.017,2.461,1.734,3.882,4.708,3.882c2.858,0,4.609-1.404,4.609-3.685c0-0.876-0.281-1.586-0.843-2.098 c-0.528-0.496-1.206-0.793-2.429-1.09l-2.229-0.513C80.33,105.133,80,104.818,80,104.356c0-0.694,0.71-1.123,1.883-1.123 c1.239,0,1.983,0.545,1.983,1.453v0.182H86.344z M95.545,107.329c-0.149-1.898-1.569-3.089-3.651-3.089 c-2.526,0-4.047,1.604-4.047,4.229c0,2.561,1.536,4.18,3.965,4.18c2.114,0,3.502-1.14,3.832-3.155l-2.278-0.116 c-0.183,0.942-0.646,1.371-1.487,1.371c-1.091,0-1.669-0.826-1.669-2.346c0-1.453,0.578-2.263,1.651-2.263 c0.777,0,1.322,0.445,1.454,1.188H95.545z M99.608,104.455h-2.346v7.979h2.346V104.455z M99.608,101.415h-2.346v1.934h2.346 V101.415z M109.471,109.13c0-1.057-0.115-1.767-0.363-2.428c-0.578-1.586-1.866-2.462-3.585-2.462 c-2.395,0-4.08,1.735-4.08,4.213c0,2.511,1.636,4.196,4.098,4.196c1.898,0,3.386-0.991,3.832-2.544h-2.379 c-0.33,0.495-0.761,0.71-1.388,0.71c-1.008,0-1.651-0.595-1.801-1.686H109.471z M103.821,107.479 c0.182-0.925,0.776-1.454,1.686-1.454c0.908,0,1.453,0.529,1.552,1.454H103.821z M111.321,104.455v7.979h2.346v-4.478 c0-0.693,0.083-1.023,0.347-1.32c0.248-0.281,0.612-0.431,1.008-0.431c0.413,0,0.761,0.165,0.958,0.463 c0.198,0.298,0.248,0.611,0.248,1.42v4.346h2.347v-5.171c0-1.884-1.058-3.039-2.792-3.039c-0.826,0-1.306,0.214-2.182,1.007 v-0.776H111.321z M128.022,107.329c-0.147-1.898-1.568-3.089-3.65-3.089c-2.527,0-4.047,1.604-4.047,4.229 c0,2.561,1.535,4.18,3.965,4.18c2.113,0,3.502-1.14,3.832-3.155l-2.279-0.116c-0.182,0.942-0.645,1.371-1.487,1.371 c-1.091,0-1.669-0.826-1.669-2.346c0-1.453,0.578-2.263,1.652-2.263c0.777,0,1.322,0.445,1.454,1.188H128.022z M137.373,109.13 c0-1.057-0.115-1.767-0.363-2.428c-0.578-1.586-1.867-2.462-3.585-2.462c-2.396,0-4.08,1.735-4.08,4.213 c0,2.511,1.635,4.196,4.097,4.196c1.899,0,3.387-0.991,3.832-2.544h-2.379c-0.33,0.495-0.759,0.71-1.387,0.71 c-1.008,0-1.652-0.595-1.801-1.686H137.373z M131.724,107.479c0.181-0.925,0.776-1.454,1.686-1.454 c0.907,0,1.452,0.529,1.553,1.454H131.724z"/></g></g></switch></svg>